<svg id="Group_2" data-name="Group 2" xmlns="http://www.w3.org/2000/svg" xmlns:xlink="http://www.w3.org/1999/xlink" width="103.965" height="95.608" viewBox="0 0 103.965 95.608">
  <defs>
    <clipPath id="clip-path">
      <rect id="Rectangle_5" data-name="Rectangle 5" width="103.965" height="95.608" fill="none"/>
    </clipPath>
  </defs>
  <g id="Group_1" data-name="Group 1" clip-path="url(#clip-path)">
    <path id="Path_1" data-name="Path 1" d="M115.413,25.608l-9.093-6.982V5.1a1.7,1.7,0,0,0-1.7-1.7H99.052a1.7,1.7,0,0,0-1.7,1.7v6.643L83.316.948a4.591,4.591,0,0,0-5.587,0l-32.1,24.66a4.589,4.589,0,0,0,5.595,7.275l29.307-22.51,29.307,22.51a4.592,4.592,0,0,0,5.595-7.283Z" transform="translate(-28.541 0)" fill="#fff"/>
    <rect id="Rectangle_1" data-name="Rectangle 1" width="10.28" height="10.28" transform="translate(40.603 24.73)" fill="#fff"/>
    <rect id="Rectangle_2" data-name="Rectangle 2" width="10.28" height="10.28" transform="translate(53.064 24.73)" fill="#fff"/>
    <rect id="Rectangle_3" data-name="Rectangle 3" width="10.28" height="10.28" transform="translate(40.603 37.568)" fill="#fff"/>
    <rect id="Rectangle_4" data-name="Rectangle 4" width="10.28" height="10.28" transform="translate(53.064 37.568)" fill="#fff"/>
    <path id="Path_2" data-name="Path 2" d="M5.965,183.935c.224,2,1.957,3.383,5.032,3.383,2.628,0,4.231-.848,4.231-2.451,0-1.873-1.557-2-5.256-2.5-5.341-.624-9.487-1.826-9.487-6.55s3.961-7.529,9.841-7.483c6.142,0,10.373,2.721,10.689,7.39H15c-.178-1.826-1.911-2.936-4.454-2.936s-4.054.894-4.054,2.358c0,1.734,1.958,1.911,5.256,2.312,5.256.532,9.617,1.734,9.617,6.9,0,4.539-4.277,7.437-10.419,7.437S.27,188.828,0,183.935Z" transform="translate(0 -109.615)" fill="#fff"/>
    <path id="Path_3" data-name="Path 3" d="M60,180.267c0-7.128,4.678-11.752,11.76-11.752s11.49,4.277,11.575,11a12.016,12.016,0,0,1-.177,2.135H66.551v.316a5.046,5.046,0,0,0,5.387,5.209c2.535,0,4.315-1.117,4.855-3.252h6.188c-.709,4.454-4.678,8.014-10.773,8.014-7.614,0-12.2-4.585-12.2-11.667Zm17.008-2.713a4.858,4.858,0,0,0-5.21-4.362,4.792,4.792,0,0,0-5.125,4.362Z" transform="translate(-39.071 -109.731)" fill="#fff"/>
    <path id="Path_4" data-name="Path 4" d="M143.238,169.288v5.7h-2.5c-3.737,0-5.163,2.5-5.163,5.965v11.22H129.3V169.288H135l.578,3.429c1.248-2.05,3.029-3.429,6.589-3.429Z" transform="translate(-84.194 -110.234)" fill="#fff"/>
    <path id="Path_5" data-name="Path 5" d="M166.2,169.288h6.728l5.526,16.476,5.433-16.476h6.589l-8.238,22.888h-7.791l-8.238-22.888Z" transform="translate(-108.223 -110.235)" fill="#fff"/>
    <path id="Path_6" data-name="Path 6" d="M231.142,180.289c0-7.128,4.678-11.752,11.76-11.752s11.49,4.277,11.575,11a12.017,12.017,0,0,1-.177,2.135H237.692v.316a5.046,5.046,0,0,0,5.387,5.21c2.535,0,4.315-1.117,4.855-3.252h6.188c-.709,4.454-4.678,8.014-10.773,8.014-7.614,0-12.2-4.585-12.2-11.667Zm17.008-2.713a4.858,4.858,0,0,0-5.21-4.362,4.792,4.792,0,0,0-5.125,4.362Z" transform="translate(-150.512 -109.745)" fill="#fff"/>
    <path id="Path_7" data-name="Path 7" d="M10.836,256.951a.185.185,0,0,1-.174.1H8.891a.258.258,0,0,1-.265-.217l-1.3-3.373q-.072-.169-.337-.168H5.843a.124.124,0,0,0-.114.048.163.163,0,0,0-.03.084v3.336q0,.289-.325.289H3.844a.209.209,0,0,1-.253-.241v-8.468q0-.229.193-.229H7.542a4.279,4.279,0,0,1,2.511.638,2.1,2.1,0,0,1,.9,1.819,2.526,2.526,0,0,1-.229,1.1,2.385,2.385,0,0,1-.6.8,2.558,2.558,0,0,1-.819.475q-.108.036-.048.181l1.59,3.6a.265.265,0,0,1-.006.229M8.4,251.572a1.039,1.039,0,0,0,.367-.861,1.077,1.077,0,0,0-.374-.891,1.524,1.524,0,0,0-.988-.3H5.928c-.153,0-.229.069-.229.2v1.94q0,.2.168.2H7.349a1.648,1.648,0,0,0,1.054-.3" transform="translate(-2.338 -161.56)" fill="#68d3d9"/>
    <path id="Path_8" data-name="Path 8" d="M50.511,256.394a3.618,3.618,0,0,1-1.427-1.572,6.191,6.191,0,0,1,.012-4.9,3.756,3.756,0,0,1,1.439-1.6,4.508,4.508,0,0,1,4.355,0,3.74,3.74,0,0,1,1.427,1.59,6.214,6.214,0,0,1,.006,4.9,3.66,3.66,0,0,1-1.428,1.578,4.171,4.171,0,0,1-2.18.554,4.254,4.254,0,0,1-2.2-.548m3.65-1.65a4.52,4.52,0,0,0,.458-2.343,4.78,4.78,0,0,0-.464-2.415,1.571,1.571,0,0,0-1.44-.753,1.593,1.593,0,0,0-1.457.759,4.73,4.73,0,0,0-.47,2.409,4.474,4.474,0,0,0,.464,2.337,1.612,1.612,0,0,0,1.463.723,1.59,1.59,0,0,0,1.446-.717" transform="translate(-31.636 -161.335)" fill="#68d3d9"/>
    <path id="Path_9" data-name="Path 9" d="M98.164,256.394a3.618,3.618,0,0,1-1.427-1.572,6.193,6.193,0,0,1,.012-4.9,3.759,3.759,0,0,1,1.44-1.6,4.508,4.508,0,0,1,4.355,0,3.742,3.742,0,0,1,1.427,1.59,6.212,6.212,0,0,1,.006,4.9,3.659,3.659,0,0,1-1.427,1.578,4.171,4.171,0,0,1-2.18.554,4.253,4.253,0,0,1-2.2-.548m3.65-1.65a4.523,4.523,0,0,0,.458-2.343,4.779,4.779,0,0,0-.464-2.415,1.571,1.571,0,0,0-1.439-.753,1.593,1.593,0,0,0-1.457.759,4.729,4.729,0,0,0-.47,2.409,4.473,4.473,0,0,0,.464,2.337,1.611,1.611,0,0,0,1.463.723,1.59,1.59,0,0,0,1.446-.717" transform="translate(-62.666 -161.335)" fill="#68d3d9"/>
    <path id="Path_10" data-name="Path 10" d="M144.946,248.109h5.975q.181,0,.181.2l-.013,1.084q0,.253-.241.253H147.09q-.229,0-.229.193v1.867q0,.193.181.193h2.614a.171.171,0,0,1,.193.193v1.144c0,.113-.06.168-.181.168H147.03c-.113,0-.169.053-.169.157v3.2c0,.185-.1.277-.313.277h-1.53a.216.216,0,0,1-.265-.253v-8.456c0-.152.065-.229.193-.229" transform="translate(-94.258 -161.56)" fill="#68d3d9"/>
    <path id="Path_11" data-name="Path 11" d="M189.383,248.109c.128,0,.193.072.193.217v8.432a.278.278,0,0,1-.078.223.38.38,0,0,1-.247.066h-1.517a.215.215,0,0,1-.265-.253v-8.456q0-.229.193-.229Z" transform="translate(-122.073 -161.56)" fill="#68d3d9"/>
    <path id="Path_12" data-name="Path 12" d="M226.571,248.109q.156,0,.157.181v8.564a.178.178,0,0,1-.06.139.244.244,0,0,1-.168.054h-1.216a.423.423,0,0,1-.157-.024.43.43,0,0,1-.144-.12l-3.842-5.4c-.032-.04-.062-.056-.09-.048s-.042.032-.042.072v5.3c.008.144-.072.217-.241.217h-1.253c-.16,0-.241-.068-.241-.2v-8.5q0-.229.217-.229h1.457a.425.425,0,0,1,.2.036.55.55,0,0,1,.151.144l3.541,5.047c.048.065.091.092.127.085s.054-.048.054-.121v-4.975a.192.192,0,0,1,.217-.217Z" transform="translate(-142.782 -161.56)" fill="#68d3d9"/>
    <path id="Path_13" data-name="Path 13" d="M267.406,256.377a3.734,3.734,0,0,1-1.4-1.59,6.077,6.077,0,0,1,.024-4.854,3.829,3.829,0,0,1,1.451-1.6,4.113,4.113,0,0,1,2.174-.566,3.954,3.954,0,0,1,1.747.374,3.645,3.645,0,0,1,1.247.951,2.7,2.7,0,0,1,.6,1.229.405.405,0,0,1,.018.241.2.2,0,0,1-.15.084l-1.59.241c-.072,0-.119-.016-.138-.048a.51.51,0,0,1-.054-.144,1.853,1.853,0,0,0-.3-.723,1.693,1.693,0,0,0-.578-.524,1.713,1.713,0,0,0-.849-.2,1.674,1.674,0,0,0-1.018.313,1.924,1.924,0,0,0-.65.988,5.772,5.772,0,0,0-.223,1.77,5.848,5.848,0,0,0,.235,1.843,1.922,1.922,0,0,0,.674.994,1.8,1.8,0,0,0,1.054.307,1.865,1.865,0,0,0,.681-.114,1.592,1.592,0,0,0,.506-.307,1.647,1.647,0,0,0,.344-.44,2.039,2.039,0,0,0,.193-.512l.024-.349c.032-.121-.008-.181-.12-.181h-1.458a.167.167,0,0,1-.193-.205v-.9c0-.112.064-.168.193-.168l3.216.012a.379.379,0,0,1,.265.079.273.273,0,0,1,.084.21v4.06a.167.167,0,0,1-.181.18h-.385a.327.327,0,0,1-.169-.042.472.472,0,0,1-.144-.15l-.35-.868c-.008-.024-.022-.036-.042-.036s-.046.02-.078.06a4.076,4.076,0,0,1-.542.536,2.677,2.677,0,0,1-.807.445,3.493,3.493,0,0,1-1.18.175,3.94,3.94,0,0,1-2.126-.566" transform="translate(-172.89 -161.335)" fill="#68d3d9"/>
  </g>
</svg>
